<svg xmlns="http://www.w3.org/2000/svg" xmlns:xlink="http://www.w3.org/1999/xlink" width="500" zoomAndPan="magnify" viewBox="0 0 375 374.999991" height="500" preserveAspectRatio="xMidYMid meet" version="1.0"><defs><g/><clipPath id="59d33ba1a0"><rect x="0" width="257" y="0" height="58"/></clipPath><clipPath id="6cbfb24960"><path d="M 56.707031 150.78125 L 97.628906 150.78125 L 97.628906 186.535156 L 56.707031 186.535156 Z M 56.707031 150.78125 " clip-rule="nonzero"/></clipPath><clipPath id="7d71ee81ab"><path d="M 77.199219 186.535156 L 56.769531 150.78125 L 97.628906 150.78125 Z M 77.199219 186.535156 " clip-rule="nonzero"/></clipPath><clipPath id="046c7b7bc4"><path d="M 0.707031 0.78125 L 41.628906 0.78125 L 41.628906 36.535156 L 0.707031 36.535156 Z M 0.707031 0.78125 " clip-rule="nonzero"/></clipPath><clipPath id="af42ac7e82"><path d="M 21.199219 36.535156 L 0.769531 0.78125 L 41.628906 0.78125 Z M 21.199219 36.535156 " clip-rule="nonzero"/></clipPath><clipPath id="9e4843f383"><rect x="0" width="42" y="0" height="37"/></clipPath><clipPath id="2fd966f631"><path d="M 15.847656 150.78125 L 56.769531 150.78125 L 56.769531 186.535156 L 15.847656 186.535156 Z M 15.847656 150.78125 " clip-rule="nonzero"/></clipPath><clipPath id="d1867a7711"><path d="M 36.335938 186.535156 L 15.90625 150.78125 L 56.769531 150.78125 Z M 36.335938 186.535156 " clip-rule="nonzero"/></clipPath><clipPath id="939b9a2088"><path d="M 0.847656 0.78125 L 41.769531 0.78125 L 41.769531 36.535156 L 0.847656 36.535156 Z M 0.847656 0.78125 " clip-rule="nonzero"/></clipPath><clipPath id="f3afcef969"><path d="M 21.335938 36.535156 L 0.90625 0.78125 L 41.769531 0.78125 Z M 21.335938 36.535156 " clip-rule="nonzero"/></clipPath><clipPath id="489615ea51"><rect x="0" width="42" y="0" height="37"/></clipPath><clipPath id="4c770c4347"><path d="M 36.277344 186.535156 L 77.199219 186.535156 L 77.199219 222.289062 L 36.277344 222.289062 Z M 36.277344 186.535156 " clip-rule="nonzero"/></clipPath><clipPath id="101dd91a74"><path d="M 56.769531 222.289062 L 36.335938 186.535156 L 77.199219 186.535156 Z M 56.769531 222.289062 " clip-rule="nonzero"/></clipPath><clipPath id="0d7eaf3486"><path d="M 0.277344 0.535156 L 41.199219 0.535156 L 41.199219 36.289062 L 0.277344 36.289062 Z M 0.277344 0.535156 " clip-rule="nonzero"/></clipPath><clipPath id="1b840de6ad"><path d="M 20.769531 36.289062 L 0.335938 0.535156 L 41.199219 0.535156 Z M 20.769531 36.289062 " clip-rule="nonzero"/></clipPath><clipPath id="3567fec415"><rect x="0" width="42" y="0" height="37"/></clipPath><clipPath id="304ac43a3f"><path d="M 46.191406 166.964844 L 67.191406 166.964844 L 67.191406 184.214844 L 46.191406 184.214844 Z M 46.191406 166.964844 " clip-rule="nonzero"/></clipPath><clipPath id="039a251cfa"><path d="M 68.886719 155.757812 L 85.386719 155.757812 L 85.386719 172.257812 L 68.886719 172.257812 Z M 68.886719 155.757812 " clip-rule="nonzero"/></clipPath><clipPath id="317dae017d"><path d="M 31 155.757812 L 35 155.757812 L 35 158 L 31 158 Z M 31 155.757812 " clip-rule="nonzero"/></clipPath><clipPath id="b6fd19a152"><path d="M 28.464844 159 L 30 159 L 30 162 L 28.464844 162 Z M 28.464844 159 " clip-rule="nonzero"/></clipPath><clipPath id="da4be43e77"><path d="M 28.464844 162 L 30 162 L 30 164 L 28.464844 164 Z M 28.464844 162 " clip-rule="nonzero"/></clipPath><clipPath id="afbc5ab684"><path d="M 28.464844 167 L 29 167 L 29 168 L 28.464844 168 Z M 28.464844 167 " clip-rule="nonzero"/></clipPath><clipPath id="c1e7165199"><path d="M 28.464844 155.757812 L 44.214844 155.757812 L 44.214844 172 L 28.464844 172 Z M 28.464844 155.757812 " clip-rule="nonzero"/></clipPath><clipPath id="d6118231f3"><path d="M 47.765625 191.101562 L 65.765625 191.101562 L 65.765625 204 L 47.765625 204 Z M 47.765625 191.101562 " clip-rule="nonzero"/></clipPath><clipPath id="0efb5449cc"><path d="M 51 204 L 63 204 L 63 206.101562 L 51 206.101562 Z M 51 204 " clip-rule="nonzero"/></clipPath><clipPath id="f3cd83c1a0"><path d="M 51.984375 192.839844 L 61.734375 192.839844 L 61.734375 200.339844 L 51.984375 200.339844 Z M 51.984375 192.839844 " clip-rule="nonzero"/></clipPath><clipPath id="31bfda0acb"><rect x="0" width="256" y="0" height="32"/></clipPath></defs><g transform="matrix(1, 0, 0, 1, 91, 148)"><g clip-path="url(#59d33ba1a0)"><g fill="#f97316" fill-opacity="1"><g transform="translate(2.29244, 41.274429)"><g><path d="M 21.53125 -37.078125 L 36.484375 0 L 27.40625 0 L 24.671875 -7.421875 L 10.5625 -7.421875 L 7.8125 0 L -1.265625 0 L 13.703125 -37.078125 Z M 21.796875 -14.828125 L 17.65625 -25.609375 L 17.578125 -25.609375 L 13.4375 -14.828125 Z M 21.796875 -14.828125 "/></g></g></g><g fill="#f97316" fill-opacity="1"><g transform="translate(43.18563, 41.274429)"><g><path d="M 23.90625 -37.078125 L 23.90625 -29.65625 L 11.140625 -29.65625 L 11.140625 -22.28125 L 23.375 -22.28125 L 23.375 -14.875 L 11.140625 -14.875 L 11.140625 -7.421875 L 23.90625 -7.421875 L 23.90625 0 L 2.703125 0 L 2.703125 -37.078125 Z M 23.90625 -37.078125 "/></g></g></g><g fill="#2e17c2" fill-opacity="1"><g transform="translate(74.918479, 41.274429)"><g><path d="M 16.359375 -37.75 C 18.367188 -37.75 20.332031 -37.457031 22.25 -36.875 C 24.164062 -36.289062 25.585938 -35.710938 26.515625 -35.140625 L 27.859375 -34.25 L 24.453125 -27.5 C 24.179688 -27.675781 23.804688 -27.90625 23.328125 -28.1875 C 22.847656 -28.476562 21.945312 -28.863281 20.625 -29.34375 C 19.3125 -29.820312 18.082031 -30.0625 16.9375 -30.0625 C 15.53125 -30.0625 14.441406 -29.757812 13.671875 -29.15625 C 12.910156 -28.5625 12.53125 -27.753906 12.53125 -26.734375 C 12.53125 -26.222656 12.707031 -25.75 13.0625 -25.3125 C 13.425781 -24.882812 14.039062 -24.421875 14.90625 -23.921875 C 15.78125 -23.429688 16.546875 -23.035156 17.203125 -22.734375 C 17.867188 -22.429688 18.890625 -21.984375 20.265625 -21.390625 C 22.660156 -20.367188 24.703125 -18.984375 26.390625 -17.234375 C 28.085938 -15.484375 28.9375 -13.5 28.9375 -11.28125 C 28.9375 -9.15625 28.550781 -7.296875 27.78125 -5.703125 C 27.019531 -4.117188 25.972656 -2.875 24.640625 -1.96875 C 23.316406 -1.070312 21.84375 -0.410156 20.21875 0.015625 C 18.601562 0.453125 16.851562 0.671875 14.96875 0.671875 C 13.34375 0.671875 11.75 0.503906 10.1875 0.171875 C 8.632812 -0.148438 7.332031 -0.554688 6.28125 -1.046875 C 5.238281 -1.546875 4.296875 -2.035156 3.453125 -2.515625 C 2.617188 -2.992188 2.007812 -3.398438 1.625 -3.734375 L 1.03125 -4.21875 L 5.25 -11.328125 C 5.613281 -11.023438 6.109375 -10.640625 6.734375 -10.171875 C 7.367188 -9.710938 8.488281 -9.09375 10.09375 -8.3125 C 11.695312 -7.53125 13.109375 -7.140625 14.328125 -7.140625 C 17.898438 -7.140625 19.6875 -8.351562 19.6875 -10.78125 C 19.6875 -11.289062 19.554688 -11.765625 19.296875 -12.203125 C 19.046875 -12.640625 18.597656 -13.070312 17.953125 -13.5 C 17.304688 -13.9375 16.734375 -14.28125 16.234375 -14.53125 C 15.742188 -14.789062 14.9375 -15.179688 13.8125 -15.703125 C 12.695312 -16.222656 11.867188 -16.617188 11.328125 -16.890625 C 9.078125 -18.003906 7.335938 -19.390625 6.109375 -21.046875 C 4.878906 -22.710938 4.265625 -24.503906 4.265625 -26.421875 C 4.265625 -29.742188 5.492188 -32.460938 7.953125 -34.578125 C 10.410156 -36.691406 13.210938 -37.75 16.359375 -37.75 Z M 16.359375 -37.75 "/></g></g></g><g fill="#2e17c2" fill-opacity="1"><g transform="translate(109.340689, 41.274429)"><g><path d="M 22.421875 -7.640625 C 23.710938 -7.640625 24.960938 -7.832031 26.171875 -8.21875 C 27.390625 -8.613281 28.28125 -8.988281 28.84375 -9.34375 L 29.703125 -9.9375 L 33.296875 -2.734375 C 33.179688 -2.648438 33.015625 -2.53125 32.796875 -2.375 C 32.585938 -2.226562 32.101562 -1.953125 31.34375 -1.546875 C 30.582031 -1.140625 29.765625 -0.785156 28.890625 -0.484375 C 28.023438 -0.191406 26.890625 0.0703125 25.484375 0.3125 C 24.078125 0.550781 22.625 0.671875 21.125 0.671875 C 17.675781 0.671875 14.410156 -0.171875 11.328125 -1.859375 C 8.242188 -3.554688 5.753906 -5.882812 3.859375 -8.84375 C 1.972656 -11.8125 1.03125 -15.019531 1.03125 -18.46875 C 1.03125 -21.070312 1.582031 -23.570312 2.6875 -25.96875 C 3.800781 -28.363281 5.28125 -30.414062 7.125 -32.125 C 8.96875 -33.832031 11.113281 -35.195312 13.5625 -36.21875 C 16.019531 -37.238281 18.539062 -37.75 21.125 -37.75 C 23.519531 -37.75 25.726562 -37.460938 27.75 -36.890625 C 29.769531 -36.328125 31.203125 -35.757812 32.046875 -35.1875 L 33.296875 -34.328125 L 29.703125 -27.140625 C 29.492188 -27.316406 29.175781 -27.53125 28.75 -27.78125 C 28.332031 -28.039062 27.492188 -28.378906 26.234375 -28.796875 C 24.984375 -29.222656 23.710938 -29.4375 22.421875 -29.4375 C 20.390625 -29.4375 18.5625 -29.101562 16.9375 -28.4375 C 15.320312 -27.78125 14.039062 -26.910156 13.09375 -25.828125 C 12.15625 -24.753906 11.4375 -23.59375 10.9375 -22.34375 C 10.445312 -21.101562 10.203125 -19.84375 10.203125 -18.5625 C 10.203125 -15.738281 11.253906 -13.210938 13.359375 -10.984375 C 15.472656 -8.753906 18.492188 -7.640625 22.421875 -7.640625 Z M 22.421875 -7.640625 "/></g></g></g><g fill="#2e17c2" fill-opacity="1"><g transform="translate(148.840822, 41.274429)"><g><path d="M 11.140625 -37.078125 L 11.140625 0 L 2.703125 0 L 2.703125 -37.078125 Z M 11.140625 -37.078125 "/></g></g></g><g fill="#404040" fill-opacity="1"><g transform="translate(168.347482, 41.274429)"><g><path d="M 1.03125 -18.5625 C 1.03125 -23.925781 2.859375 -28.460938 6.515625 -32.171875 C 10.171875 -35.890625 14.578125 -37.75 19.734375 -37.75 C 24.910156 -37.75 29.3125 -35.894531 32.9375 -32.1875 C 36.5625 -28.488281 38.375 -23.945312 38.375 -18.5625 C 38.375 -13.132812 36.59375 -8.570312 33.03125 -4.875 C 29.46875 -1.175781 25.035156 0.671875 19.734375 0.671875 C 14.304688 0.671875 9.832031 -1.160156 6.3125 -4.828125 C 2.789062 -8.492188 1.03125 -13.070312 1.03125 -18.5625 Z M 10.15625 -18.5625 C 10.15625 -16.613281 10.453125 -14.835938 11.046875 -13.234375 C 11.648438 -11.628906 12.703125 -10.269531 14.203125 -9.15625 C 15.703125 -8.050781 17.546875 -7.5 19.734375 -7.5 C 22.878906 -7.5 25.25 -8.578125 26.84375 -10.734375 C 28.445312 -12.890625 29.25 -15.5 29.25 -18.5625 C 29.25 -21.582031 28.429688 -24.175781 26.796875 -26.34375 C 25.171875 -28.519531 22.816406 -29.609375 19.734375 -29.609375 C 16.671875 -29.609375 14.304688 -28.519531 12.640625 -26.34375 C 10.984375 -24.175781 10.15625 -21.582031 10.15625 -18.5625 Z M 10.15625 -18.5625 "/></g></g></g><g fill="#404040" fill-opacity="1"><g transform="translate(213.419805, 41.274429)"><g><path d="M 11.140625 -23.015625 L 11.140625 0 L 2.703125 0 L 2.703125 -37.078125 L 11.140625 -37.078125 L 25.890625 -14.0625 L 25.96875 -14.0625 L 25.96875 -37.078125 L 34.421875 -37.078125 L 34.421875 0 L 25.96875 0 L 11.234375 -23.015625 Z M 11.140625 -23.015625 "/></g></g></g></g></g><g clip-path="url(#6cbfb24960)"><g clip-path="url(#7d71ee81ab)"><g transform="matrix(1, 0, 0, 1, 56, 150)"><g clip-path="url(#9e4843f383)"><g clip-path="url(#046c7b7bc4)"><g clip-path="url(#af42ac7e82)"><path fill="#f97316" d="M 41.628906 36.535156 L 0.707031 36.535156 L 0.707031 0.78125 L 41.628906 0.78125 Z M 41.628906 36.535156 " fill-opacity="1" fill-rule="nonzero"/></g></g></g></g></g></g><g clip-path="url(#2fd966f631)"><g clip-path="url(#d1867a7711)"><g transform="matrix(1, 0, 0, 1, 15, 150)"><g clip-path="url(#489615ea51)"><g clip-path="url(#939b9a2088)"><g clip-path="url(#f3afcef969)"><path fill="#2e17c2" d="M 41.769531 36.535156 L 0.847656 36.535156 L 0.847656 0.78125 L 41.769531 0.78125 Z M 41.769531 36.535156 " fill-opacity="1" fill-rule="nonzero"/></g></g></g></g></g></g><g clip-path="url(#4c770c4347)"><g clip-path="url(#101dd91a74)"><g transform="matrix(1, 0, 0, 1, 36, 186)"><g clip-path="url(#3567fec415)"><g clip-path="url(#0d7eaf3486)"><g clip-path="url(#1b840de6ad)"><path fill="#404040" d="M 41.199219 36.289062 L 0.277344 36.289062 L 0.277344 0.535156 L 41.199219 0.535156 Z M 41.199219 36.289062 " fill-opacity="1" fill-rule="nonzero"/></g></g></g></g></g></g><g clip-path="url(#304ac43a3f)"><path fill="#2e17c2" d="M 50.039062 176.757812 L 50.039062 180.605469 L 56.773438 184.28125 L 63.507812 180.605469 L 63.507812 176.757812 L 56.773438 180.433594 Z M 56.773438 166.964844 L 46.191406 172.738281 L 56.773438 178.507812 L 65.429688 173.785156 L 65.429688 180.433594 L 67.355469 180.433594 L 67.355469 172.738281 Z M 56.773438 166.964844 " fill-opacity="1" fill-rule="nonzero"/></g><g clip-path="url(#039a251cfa)"><path fill="#ffffff" d="M 73.421875 159.03125 L 75.707031 159.03125 L 75.277344 157.046875 C 74.988281 156.984375 74.773438 156.71875 74.773438 156.414062 C 74.773438 156.050781 75.0625 155.757812 75.429688 155.757812 C 75.792969 155.757812 76.085938 156.050781 76.085938 156.414062 C 76.085938 156.71875 75.871094 156.984375 75.578125 157.046875 L 76.007812 159.03125 L 78.292969 159.03125 L 77.863281 157.046875 C 77.585938 156.972656 77.371094 156.71875 77.371094 156.414062 C 77.371094 156.050781 77.664062 155.757812 78.027344 155.757812 C 78.382812 155.757812 78.6875 156.050781 78.6875 156.414062 C 78.6875 156.730469 78.457031 156.984375 78.167969 157.046875 L 78.597656 159.03125 L 81.019531 159.03125 C 81.628906 159.03125 82.144531 159.484375 82.234375 160.078125 L 84.226562 159.648438 C 84.253906 159.308594 84.53125 159.042969 84.886719 159.042969 C 85.238281 159.042969 85.527344 159.332031 85.527344 159.699219 C 85.527344 160.066406 85.238281 160.355469 84.886719 160.355469 C 84.605469 160.355469 84.367188 160.179688 84.265625 159.9375 L 82.246094 160.378906 L 82.246094 162.652344 L 84.226562 162.238281 C 84.253906 161.90625 84.542969 161.644531 84.886719 161.644531 C 85.238281 161.644531 85.527344 161.933594 85.527344 162.300781 C 85.527344 162.664062 85.238281 162.957031 84.886719 162.957031 C 84.59375 162.957031 84.355469 162.777344 84.265625 162.527344 L 82.246094 162.957031 L 82.246094 165.242188 L 84.226562 164.824219 C 84.265625 164.496094 84.542969 164.242188 84.886719 164.242188 C 85.238281 164.242188 85.527344 164.535156 85.527344 164.902344 C 85.527344 165.253906 85.238281 165.558594 84.886719 165.558594 C 84.59375 165.558594 84.355469 165.367188 84.265625 165.113281 L 82.246094 165.542969 L 82.246094 167.878906 C 82.246094 168.484375 81.792969 169.003906 81.199219 169.09375 L 81.628906 171.097656 C 81.96875 171.113281 82.246094 171.402344 82.246094 171.757812 C 82.246094 172.109375 81.957031 172.398438 81.589844 172.398438 C 81.234375 172.398438 80.945312 172.109375 80.945312 171.757812 C 80.945312 171.476562 81.097656 171.25 81.335938 171.148438 L 80.894531 169.105469 L 78.609375 169.105469 L 79.039062 171.097656 C 79.378906 171.125 79.644531 171.402344 79.644531 171.757812 C 79.644531 172.109375 79.355469 172.398438 78.988281 172.398438 C 78.636719 172.398438 78.34375 172.109375 78.34375 171.757812 C 78.34375 171.476562 78.507812 171.238281 78.75 171.148438 L 78.308594 169.105469 L 76.023438 169.105469 L 76.449219 171.097656 C 76.792969 171.125 77.042969 171.402344 77.042969 171.757812 C 77.042969 172.109375 76.753906 172.398438 76.386719 172.398438 C 76.035156 172.398438 75.742188 172.109375 75.742188 171.757812 C 75.742188 171.464844 75.921875 171.238281 76.160156 171.136719 L 75.71875 169.105469 L 73.410156 169.105469 C 72.839844 169.105469 72.359375 168.714844 72.207031 168.195312 L 70.175781 168.625 C 70.101562 168.914062 69.847656 169.117188 69.542969 169.117188 C 69.179688 169.117188 68.886719 168.828125 68.886719 168.460938 C 68.886719 168.105469 69.179688 167.816406 69.542969 167.816406 C 69.859375 167.816406 70.113281 168.03125 70.175781 168.320312 L 72.171875 167.90625 C 72.171875 167.894531 72.171875 167.878906 72.171875 167.878906 L 72.171875 165.621094 L 70.175781 166.050781 C 70.085938 166.316406 69.835938 166.515625 69.542969 166.515625 C 69.179688 166.515625 68.886719 166.226562 68.886719 165.859375 C 68.886719 165.507812 69.179688 165.214844 69.542969 165.214844 C 69.859375 165.214844 70.125 165.441406 70.1875 165.746094 L 72.171875 165.316406 L 72.171875 163.03125 L 70.164062 163.460938 C 70.085938 163.726562 69.835938 163.914062 69.542969 163.914062 C 69.179688 163.914062 68.886719 163.625 68.886719 163.257812 C 68.886719 162.90625 69.179688 162.613281 69.542969 162.613281 C 69.859375 162.613281 70.136719 162.84375 70.1875 163.15625 L 72.171875 162.730469 L 72.171875 160.253906 C 72.171875 159.671875 72.585938 159.195312 73.128906 159.066406 L 72.699219 157.058594 C 72.398438 156.996094 72.171875 156.730469 72.171875 156.414062 C 72.171875 156.050781 72.460938 155.757812 72.828125 155.757812 C 73.195312 155.757812 73.484375 156.050781 73.484375 156.414062 C 73.484375 156.71875 73.269531 156.972656 72.992188 157.046875 Z M 73.671875 159.371094 L 80.742188 159.371094 C 81.363281 159.371094 81.867188 159.875 81.867188 160.492188 L 81.867188 167.640625 C 81.867188 168.257812 81.363281 168.765625 80.742188 168.765625 L 73.671875 168.765625 C 73.054688 168.765625 72.550781 168.257812 72.550781 167.640625 L 72.550781 160.492188 C 72.550781 159.875 73.054688 159.371094 73.671875 159.371094 Z M 73.671875 159.371094 " fill-opacity="1" fill-rule="evenodd"/></g><path fill="#ffffff" d="M 78.863281 166.453125 L 77.839844 166.453125 L 77.421875 165.367188 L 75.53125 165.367188 L 75.136719 166.453125 L 74.117188 166.453125 L 75.957031 161.71875 L 76.96875 161.71875 Z M 77.121094 164.570312 L 76.449219 162.816406 L 75.820312 164.570312 Z M 79.34375 166.453125 L 79.34375 161.71875 L 80.300781 161.71875 L 80.300781 166.453125 Z M 79.34375 166.453125 " fill-opacity="1" fill-rule="nonzero"/><path fill="#ffffff" d="M 40.089844 166.609375 C 40.449219 166.109375 40.640625 165.519531 40.640625 164.898438 L 40.640625 160.070312 C 40.640625 159.832031 40.515625 159.605469 40.3125 159.484375 C 39.261719 158.863281 38.113281 158.414062 36.894531 158.152344 C 36.777344 158.125 36.65625 158.113281 36.539062 158.113281 C 36.421875 158.113281 36.300781 158.125 36.183594 158.152344 C 34.964844 158.414062 33.816406 158.863281 32.769531 159.484375 C 32.5625 159.605469 32.4375 159.832031 32.4375 160.070312 L 32.4375 164.898438 C 32.4375 165.519531 32.628906 166.109375 32.988281 166.609375 C 33.746094 167.664062 34.875 168.441406 36.539062 169.058594 C 38.203125 168.441406 39.332031 167.664062 40.089844 166.609375 Z M 35.585938 162.222656 C 35.585938 161.699219 36.011719 161.269531 36.539062 161.269531 C 37.066406 161.269531 37.492188 161.699219 37.492188 162.222656 C 37.492188 162.613281 37.261719 162.945312 36.929688 163.09375 L 37.390625 165.964844 L 35.6875 165.964844 L 36.148438 163.09375 C 35.816406 162.945312 35.585938 162.613281 35.585938 162.222656 Z M 35.585938 162.222656 " fill-opacity="1" fill-rule="nonzero"/><path fill="#ffffff" d="M 35.78125 170.386719 C 34.75 170.273438 33.78125 169.941406 32.898438 169.398438 C 32.835938 169.359375 32.757812 169.378906 32.722656 169.4375 C 32.683594 169.5 32.703125 169.578125 32.761719 169.617188 C 33.679688 170.179688 34.683594 170.523438 35.753906 170.640625 C 35.757812 170.640625 35.761719 170.640625 35.769531 170.640625 C 35.832031 170.640625 35.886719 170.59375 35.894531 170.527344 C 35.902344 170.457031 35.851562 170.394531 35.78125 170.386719 Z M 35.78125 170.386719 " fill-opacity="1" fill-rule="nonzero"/><g clip-path="url(#317dae017d)"><path fill="#ffffff" d="M 32.058594 157.429688 C 32.082031 157.429688 32.109375 157.421875 32.132812 157.40625 C 32.886719 156.855469 33.726562 156.457031 34.625 156.222656 C 34.695312 156.203125 34.734375 156.132812 34.71875 156.066406 C 34.699219 155.996094 34.628906 155.957031 34.5625 155.972656 C 33.628906 156.21875 32.761719 156.632812 31.980469 157.199219 C 31.925781 157.242188 31.910156 157.320312 31.953125 157.378906 C 31.976562 157.414062 32.015625 157.429688 32.058594 157.429688 Z M 32.058594 157.429688 " fill-opacity="1" fill-rule="nonzero"/></g><g clip-path="url(#b6fd19a152)"><path fill="#ffffff" d="M 29.050781 161.984375 C 29.0625 161.988281 29.070312 161.988281 29.078125 161.988281 C 29.136719 161.988281 29.191406 161.949219 29.203125 161.886719 C 29.347656 161.21875 29.585938 160.570312 29.90625 159.964844 C 29.941406 159.902344 29.917969 159.824219 29.855469 159.792969 C 29.792969 159.757812 29.714844 159.78125 29.679688 159.84375 C 29.347656 160.472656 29.101562 161.140625 28.953125 161.832031 C 28.9375 161.902344 28.984375 161.96875 29.050781 161.984375 Z M 29.050781 161.984375 " fill-opacity="1" fill-rule="nonzero"/></g><g clip-path="url(#da4be43e77)"><path fill="#ffffff" d="M 28.839844 162.503906 C 28.800781 162.828125 28.777344 163.15625 28.777344 163.480469 C 28.777344 163.550781 28.835938 163.609375 28.90625 163.609375 C 28.976562 163.609375 29.035156 163.550781 29.035156 163.480469 C 29.035156 163.167969 29.054688 162.847656 29.09375 162.539062 C 29.101562 162.46875 29.050781 162.402344 28.980469 162.394531 C 28.910156 162.386719 28.847656 162.433594 28.839844 162.503906 Z M 28.839844 162.503906 " fill-opacity="1" fill-rule="nonzero"/></g><path fill="#ffffff" d="M 33.859375 169.5 C 33.832031 169.5625 33.863281 169.640625 33.929688 169.667969 C 34.4375 169.882812 34.972656 170.03125 35.519531 170.117188 C 35.523438 170.117188 35.53125 170.117188 35.539062 170.117188 C 35.601562 170.117188 35.652344 170.070312 35.664062 170.007812 C 35.675781 169.9375 35.625 169.875 35.554688 169.863281 C 35.03125 169.78125 34.515625 169.636719 34.027344 169.429688 C 33.960938 169.402344 33.886719 169.433594 33.859375 169.5 Z M 33.859375 169.5 " fill-opacity="1" fill-rule="nonzero"/><g clip-path="url(#afbc5ab684)"><path fill="#ffffff" d="M 28.726562 167.507812 C 28.726562 167.566406 28.773438 167.617188 28.832031 167.617188 C 28.890625 167.617188 28.941406 167.566406 28.941406 167.507812 C 28.941406 167.449219 28.890625 167.402344 28.832031 167.402344 C 28.773438 167.402344 28.726562 167.449219 28.726562 167.507812 Z M 28.726562 167.507812 " fill-opacity="1" fill-rule="nonzero"/></g><path fill="#ffffff" d="M 42.683594 156.511719 C 42.742188 156.511719 42.789062 156.464844 42.789062 156.40625 C 42.789062 156.347656 42.742188 156.300781 42.683594 156.300781 C 42.625 156.300781 42.578125 156.347656 42.578125 156.40625 C 42.578125 156.464844 42.625 156.511719 42.683594 156.511719 Z M 42.683594 156.511719 " fill-opacity="1" fill-rule="nonzero"/><path fill="#ffffff" d="M 30 171.007812 C 29.941406 171.007812 29.894531 171.054688 29.894531 171.113281 C 29.894531 171.171875 29.941406 171.21875 30 171.21875 C 30.058594 171.21875 30.109375 171.171875 30.109375 171.113281 C 30.109375 171.054688 30.058594 171.007812 30 171.007812 Z M 30 171.007812 " fill-opacity="1" fill-rule="nonzero"/><g clip-path="url(#c1e7165199)"><path fill="#ffffff" d="M 43.195312 158.027344 C 43.269531 158.027344 43.324219 157.972656 43.324219 157.902344 L 43.324219 157.296875 L 44.09375 157.296875 C 44.164062 157.296875 44.222656 157.242188 44.222656 157.171875 C 44.222656 157.097656 44.164062 157.042969 44.09375 157.042969 L 41.242188 157.042969 L 41.242188 156.535156 L 42.046875 156.535156 C 42.117188 156.535156 42.175781 156.476562 42.175781 156.40625 C 42.175781 156.335938 42.117188 156.277344 42.046875 156.277344 L 41.113281 156.277344 C 41.042969 156.277344 40.984375 156.335938 40.984375 156.40625 L 40.984375 157.121094 L 40.613281 157.546875 C 39.742188 156.941406 38.722656 156.527344 37.621094 156.359375 L 37.621094 155.886719 C 37.621094 155.816406 37.5625 155.757812 37.492188 155.757812 C 37.421875 155.757812 37.363281 155.816406 37.363281 155.886719 L 37.363281 157.304688 C 37.09375 157.265625 36.820312 157.246094 36.539062 157.246094 C 36.257812 157.246094 35.984375 157.265625 35.714844 157.304688 L 35.714844 156.46875 C 35.714844 156.46875 35.710938 156.464844 35.710938 156.460938 C 35.710938 156.457031 35.714844 156.457031 35.714844 156.453125 C 35.710938 156.445312 35.707031 156.441406 35.707031 156.4375 C 35.707031 156.429688 35.703125 156.421875 35.699219 156.414062 C 35.695312 156.40625 35.691406 156.398438 35.683594 156.390625 C 35.679688 156.386719 35.675781 156.378906 35.671875 156.375 C 35.664062 156.371094 35.65625 156.363281 35.648438 156.359375 C 35.640625 156.355469 35.636719 156.351562 35.628906 156.351562 C 35.621094 156.347656 35.613281 156.347656 35.601562 156.34375 C 35.597656 156.34375 35.589844 156.34375 35.585938 156.34375 C 35.582031 156.34375 35.582031 156.34375 35.578125 156.34375 C 35.574219 156.34375 35.570312 156.34375 35.570312 156.34375 C 34.046875 156.546875 32.660156 157.21875 31.550781 158.289062 L 31.1875 157.949219 C 31.164062 157.925781 31.132812 157.914062 31.101562 157.914062 L 29.441406 157.914062 L 29.441406 156.882812 C 29.441406 156.8125 29.382812 156.753906 29.3125 156.753906 C 29.242188 156.753906 29.183594 156.8125 29.183594 156.882812 L 29.183594 157.914062 L 28.597656 157.914062 C 28.527344 157.914062 28.472656 157.972656 28.472656 158.042969 C 28.472656 158.113281 28.527344 158.171875 28.597656 158.171875 L 28.792969 158.171875 L 28.792969 159.757812 C 28.792969 159.828125 28.847656 159.886719 28.917969 159.886719 C 28.988281 159.886719 29.046875 159.828125 29.046875 159.757812 L 29.046875 158.171875 L 30.082031 158.171875 L 30.082031 158.765625 C 30.082031 158.835938 30.136719 158.894531 30.207031 158.894531 C 30.28125 158.894531 30.335938 158.835938 30.335938 158.765625 L 30.335938 158.171875 L 31.050781 158.171875 L 32.078125 159.132812 C 31.738281 159.480469 31.441406 159.867188 31.1875 160.285156 L 30.507812 159.800781 C 30.507812 159.800781 30.503906 159.800781 30.503906 159.796875 C 30.5 159.796875 30.5 159.796875 30.496094 159.792969 C 30.492188 159.792969 30.484375 159.792969 30.480469 159.789062 C 30.472656 159.785156 30.464844 159.78125 30.457031 159.78125 C 30.445312 159.777344 30.4375 159.78125 30.429688 159.78125 C 30.421875 159.78125 30.414062 159.777344 30.40625 159.78125 C 30.398438 159.78125 30.390625 159.785156 30.382812 159.789062 C 30.375 159.792969 30.367188 159.796875 30.363281 159.800781 C 30.355469 159.804688 30.347656 159.8125 30.34375 159.820312 C 30.339844 159.824219 30.332031 159.824219 30.328125 159.832031 C 30.328125 159.832031 30.328125 159.835938 30.328125 159.835938 C 30.324219 159.835938 30.324219 159.839844 30.324219 159.839844 C 29.675781 160.941406 29.335938 162.199219 29.335938 163.480469 C 29.335938 165.230469 29.972656 166.917969 31.125 168.230469 C 31.152344 168.261719 31.1875 168.273438 31.222656 168.273438 C 31.25 168.273438 31.28125 168.265625 31.304688 168.242188 C 31.359375 168.195312 31.363281 168.117188 31.316406 168.0625 C 31.136719 167.855469 30.96875 167.640625 30.816406 167.414062 L 31.328125 166.910156 C 31.832031 167.679688 32.507812 168.335938 33.324219 168.824219 L 28.960938 168.824219 L 28.960938 168.148438 C 28.960938 168.078125 28.90625 168.019531 28.832031 168.019531 C 28.761719 168.019531 28.707031 168.078125 28.707031 168.148438 L 28.707031 168.953125 C 28.707031 169.023438 28.761719 169.078125 28.832031 169.078125 L 29.875 169.078125 L 29.875 170.453125 C 29.875 170.523438 29.929688 170.578125 30 170.578125 C 30.070312 170.578125 30.128906 170.523438 30.128906 170.453125 L 30.128906 169.078125 L 30.796875 169.078125 L 30.796875 169.703125 C 30.796875 169.773438 30.855469 169.828125 30.925781 169.828125 C 30.996094 169.828125 31.054688 169.773438 31.054688 169.703125 L 31.054688 169.078125 L 33.824219 169.078125 C 33.832031 169.078125 33.835938 169.078125 33.839844 169.078125 C 33.851562 169.074219 33.863281 169.074219 33.871094 169.070312 C 33.878906 169.066406 33.882812 169.0625 33.890625 169.058594 C 33.898438 169.054688 33.90625 169.050781 33.910156 169.046875 C 33.917969 169.039062 33.921875 169.03125 33.929688 169.023438 C 33.933594 169.019531 33.9375 169.015625 33.941406 169.007812 C 33.941406 169.007812 33.941406 169.007812 33.941406 169.003906 C 33.945312 168.996094 33.945312 168.988281 33.949219 168.980469 C 33.949219 168.972656 33.953125 168.964844 33.953125 168.957031 C 33.953125 168.953125 33.953125 168.953125 33.953125 168.953125 C 33.953125 168.945312 33.949219 168.941406 33.949219 168.933594 C 33.949219 168.925781 33.949219 168.914062 33.945312 168.90625 C 33.941406 168.898438 33.9375 168.890625 33.933594 168.886719 C 33.925781 168.878906 33.925781 168.871094 33.917969 168.863281 C 33.914062 168.859375 33.90625 168.855469 33.898438 168.847656 C 33.890625 168.84375 33.886719 168.839844 33.882812 168.835938 C 32.871094 168.332031 32.046875 167.578125 31.472656 166.664062 C 31.46875 166.644531 31.457031 166.628906 31.445312 166.613281 C 31.441406 166.613281 31.441406 166.613281 31.441406 166.613281 C 30.875 165.691406 30.5625 164.613281 30.5625 163.480469 C 30.5625 160.183594 33.242188 157.503906 36.539062 157.503906 C 39.835938 157.503906 42.515625 160.183594 42.515625 163.480469 C 42.515625 166.777344 39.835938 169.457031 36.539062 169.457031 C 36.46875 169.457031 36.410156 169.515625 36.410156 169.585938 L 36.410156 171.769531 C 36.410156 171.839844 36.46875 171.894531 36.539062 171.894531 C 36.609375 171.894531 36.667969 171.839844 36.667969 171.769531 L 36.667969 171.339844 L 37.820312 171.339844 C 37.890625 171.339844 37.949219 171.28125 37.949219 171.210938 C 37.949219 171.140625 37.890625 171.082031 37.820312 171.082031 L 36.667969 171.082031 L 36.667969 170.679688 C 38.507812 170.648438 40.234375 169.929688 41.554688 168.648438 L 41.75 168.878906 C 41.082031 169.523438 40.3125 170.035156 39.460938 170.394531 C 39.394531 170.421875 39.363281 170.5 39.390625 170.5625 C 39.414062 170.613281 39.460938 170.640625 39.511719 170.640625 C 39.527344 170.640625 39.542969 170.640625 39.558594 170.632812 C 40.4375 170.261719 41.226562 169.734375 41.917969 169.074219 L 42.390625 169.632812 L 42.390625 170.363281 C 42.390625 170.433594 42.449219 170.492188 42.519531 170.492188 C 42.589844 170.492188 42.648438 170.433594 42.648438 170.363281 L 42.648438 169.714844 L 42.996094 169.714844 L 42.996094 170.863281 C 42.996094 170.933594 43.054688 170.992188 43.125 170.992188 C 43.195312 170.992188 43.25 170.933594 43.25 170.863281 L 43.25 169.714844 L 44.03125 169.714844 C 44.101562 169.714844 44.160156 169.65625 44.160156 169.585938 C 44.160156 169.515625 44.101562 169.457031 44.03125 169.457031 L 42.578125 169.457031 L 41.101562 167.722656 C 41.21875 167.597656 41.332031 167.464844 41.4375 167.332031 L 42.550781 168.53125 C 42.574219 168.558594 42.609375 168.574219 42.644531 168.574219 L 43.824219 168.574219 C 43.894531 168.574219 43.953125 168.515625 43.953125 168.445312 C 43.953125 168.375 43.894531 168.316406 43.824219 168.316406 L 43.347656 168.316406 L 43.347656 167.492188 C 43.347656 167.421875 43.292969 167.363281 43.21875 167.363281 C 43.148438 167.363281 43.09375 167.421875 43.09375 167.492188 L 43.09375 168.316406 L 42.699219 168.316406 L 41.925781 167.480469 C 42.195312 167.121094 42.425781 166.738281 42.617188 166.332031 C 42.648438 166.269531 42.621094 166.195312 42.554688 166.164062 C 42.492188 166.132812 42.414062 166.160156 42.386719 166.226562 C 42.210938 166.597656 41.992188 166.957031 41.75 167.292969 L 41.59375 167.125 C 42.335938 166.097656 42.773438 164.839844 42.773438 163.480469 C 42.773438 160.414062 40.542969 157.855469 37.621094 157.34375 L 37.621094 156.621094 C 40.972656 157.144531 43.484375 160.066406 43.484375 163.480469 C 43.484375 164.003906 43.425781 164.527344 43.3125 165.03125 C 43.296875 165.101562 43.339844 165.167969 43.410156 165.183594 C 43.417969 165.1875 43.429688 165.1875 43.4375 165.1875 C 43.496094 165.1875 43.546875 165.148438 43.5625 165.089844 C 43.683594 164.5625 43.742188 164.023438 43.742188 163.480469 C 43.742188 161.140625 42.601562 159.019531 40.824219 157.695312 L 41.171875 157.296875 L 42.238281 157.296875 L 42.238281 158.402344 C 42.238281 158.472656 42.296875 158.53125 42.367188 158.53125 C 42.4375 158.53125 42.496094 158.472656 42.496094 158.402344 L 42.496094 157.296875 L 43.070312 157.296875 L 43.070312 157.902344 C 43.070312 157.972656 43.125 158.027344 43.195312 158.027344 Z M 30.304688 163.480469 C 30.304688 164.640625 30.621094 165.742188 31.1875 166.6875 L 30.671875 167.199219 C 29.972656 166.09375 29.59375 164.804688 29.59375 163.480469 C 29.59375 162.292969 29.898438 161.125 30.476562 160.09375 L 31.058594 160.507812 C 30.578125 161.394531 30.304688 162.40625 30.304688 163.480469 Z M 35.457031 157.34375 C 34.234375 157.558594 33.128906 158.132812 32.261719 158.953125 L 31.738281 158.460938 C 32.769531 157.472656 34.050781 156.839844 35.457031 156.621094 Z M 41.386719 168.453125 C 40.113281 169.695312 38.445312 170.390625 36.667969 170.425781 L 36.667969 169.710938 C 38.324219 169.679688 39.824219 168.996094 40.921875 167.90625 Z M 41.386719 168.453125 " fill-opacity="1" fill-rule="nonzero"/></g><g clip-path="url(#d6118231f3)"><path fill="#ffffff" d="M 65 200.699219 L 48.550781 200.699219 L 48.550781 191.964844 C 48.550781 191.925781 48.582031 191.894531 48.621094 191.894531 L 64.929688 191.894531 C 64.96875 191.894531 65 191.925781 65 191.964844 Z M 58.578125 202.394531 C 58.496094 202.476562 58.378906 202.53125 58.25 202.53125 L 55.304688 202.53125 C 55.046875 202.53125 54.835938 202.320312 54.835938 202.0625 C 54.835938 201.933594 54.886719 201.816406 54.972656 201.730469 C 55.058594 201.644531 55.175781 201.59375 55.304688 201.59375 L 58.25 201.59375 C 58.507812 201.59375 58.714844 201.804688 58.714844 202.0625 C 58.714844 202.191406 58.664062 202.308594 58.578125 202.394531 Z M 64.929688 191.109375 L 48.621094 191.109375 C 48.148438 191.109375 47.765625 191.492188 47.765625 191.964844 L 47.765625 202.34375 C 47.765625 202.816406 48.148438 203.199219 48.621094 203.199219 L 64.929688 203.199219 C 65.402344 203.199219 65.789062 202.816406 65.789062 202.34375 L 65.789062 191.964844 C 65.789062 191.492188 65.402344 191.109375 64.929688 191.109375 " fill-opacity="1" fill-rule="nonzero"/></g><path fill="#ffffff" d="M 58.480469 202.0625 C 58.480469 202.125 58.457031 202.183594 58.414062 202.226562 C 58.367188 202.269531 58.308594 202.292969 58.25 202.292969 L 55.304688 202.292969 C 55.175781 202.292969 55.070312 202.191406 55.070312 202.0625 C 55.070312 202 55.09375 201.941406 55.140625 201.898438 C 55.183594 201.851562 55.242188 201.828125 55.304688 201.828125 L 58.25 201.828125 C 58.375 201.828125 58.480469 201.933594 58.480469 202.0625 " fill-opacity="1" fill-rule="nonzero"/><g clip-path="url(#0efb5449cc)"><path fill="#ffffff" d="M 62.078125 206.011719 L 51.476562 206.011719 C 51.6875 205.394531 52.273438 204.949219 52.960938 204.949219 L 60.59375 204.949219 C 61.28125 204.949219 61.867188 205.394531 62.078125 206.011719 " fill-opacity="1" fill-rule="nonzero"/></g><path fill="#ffffff" d="M 58.792969 204.664062 L 54.757812 204.664062 L 55.15625 203.484375 L 58.398438 203.484375 L 58.792969 204.664062 " fill-opacity="1" fill-rule="nonzero"/><g clip-path="url(#f3cd83c1a0)"><path fill="#ffffff" d="M 56.773438 198.894531 C 56.566406 198.894531 56.378906 198.976562 56.242188 199.109375 L 56.230469 199.121094 C 56.09375 199.257812 56.003906 199.449219 56.003906 199.664062 C 56.003906 199.875 56.09375 200.070312 56.230469 200.207031 C 56.371094 200.347656 56.5625 200.433594 56.773438 200.433594 C 56.984375 200.433594 57.171875 200.351562 57.308594 200.21875 L 57.320312 200.207031 C 57.457031 200.070312 57.546875 199.878906 57.546875 199.664062 C 57.546875 199.453125 57.457031 199.257812 57.320312 199.121094 C 57.179688 198.980469 56.988281 198.894531 56.773438 198.894531 Z M 57.101562 199.992188 L 57.09375 200 C 57.011719 200.078125 56.898438 200.125 56.773438 200.125 C 56.648438 200.125 56.53125 200.074219 56.449219 199.992188 C 56.363281 199.910156 56.3125 199.792969 56.3125 199.664062 C 56.3125 199.535156 56.363281 199.421875 56.449219 199.335938 L 56.457031 199.332031 C 56.539062 199.25 56.652344 199.203125 56.773438 199.203125 C 56.902344 199.203125 57.019531 199.253906 57.101562 199.335938 C 57.1875 199.421875 57.238281 199.539062 57.238281 199.664062 C 57.238281 199.792969 57.183594 199.910156 57.101562 199.992188 Z M 60.019531 196.230469 C 59.597656 195.804688 59.089844 195.464844 58.527344 195.230469 C 57.988281 195.007812 57.394531 194.882812 56.773438 194.882812 C 56.152344 194.882812 55.5625 195.007812 55.019531 195.230469 C 54.457031 195.464844 53.949219 195.804688 53.527344 196.230469 L 53.464844 196.292969 C 53.410156 196.351562 53.410156 196.445312 53.46875 196.503906 L 54.125 197.175781 C 54.1875 197.238281 54.285156 197.238281 54.34375 197.179688 L 54.410156 197.109375 C 54.71875 196.800781 55.085938 196.554688 55.496094 196.382812 C 55.890625 196.222656 56.320312 196.132812 56.773438 196.132812 C 57.226562 196.132812 57.65625 196.222656 58.050781 196.382812 C 58.460938 196.550781 58.828125 196.800781 59.136719 197.109375 C 59.160156 197.128906 59.179688 197.152344 59.203125 197.175781 C 59.261719 197.234375 59.359375 197.238281 59.417969 197.179688 L 60.078125 196.503906 C 60.136719 196.445312 60.136719 196.351562 60.078125 196.289062 C 60.074219 196.285156 60.019531 196.230469 60.019531 196.230469 Z M 59.316406 196.851562 C 58.992188 196.535156 58.601562 196.28125 58.171875 196.101562 C 57.742188 195.925781 57.269531 195.824219 56.777344 195.824219 C 56.28125 195.824219 55.808594 195.921875 55.378906 196.101562 C 54.949219 196.277344 54.5625 196.535156 54.234375 196.851562 L 53.796875 196.402344 C 54.183594 196.027344 54.636719 195.726562 55.140625 195.515625 C 55.644531 195.308594 56.195312 195.195312 56.777344 195.195312 C 57.359375 195.195312 57.914062 195.308594 58.417969 195.515625 C 58.921875 195.726562 59.375 196.027344 59.761719 196.402344 Z M 61.507812 194.828125 C 61.5 194.824219 61.460938 194.785156 61.460938 194.785156 C 60.851562 194.175781 60.121094 193.679688 59.308594 193.34375 C 58.527344 193.019531 57.671875 192.84375 56.773438 192.84375 C 55.875 192.84375 55.019531 193.019531 54.238281 193.34375 C 53.425781 193.679688 52.695312 194.175781 52.082031 194.785156 L 52.039062 194.828125 C 51.980469 194.890625 51.980469 194.984375 52.039062 195.046875 L 52.699219 195.71875 C 52.757812 195.777344 52.855469 195.777344 52.914062 195.71875 L 52.96875 195.667969 C 53.464844 195.171875 54.058594 194.769531 54.714844 194.496094 C 55.347656 194.234375 56.042969 194.089844 56.773438 194.089844 C 57.503906 194.089844 58.199219 194.234375 58.832031 194.496094 C 59.492188 194.769531 60.082031 195.167969 60.582031 195.667969 C 60.597656 195.683594 60.617188 195.703125 60.632812 195.71875 C 60.691406 195.777344 60.789062 195.777344 60.847656 195.71875 L 61.507812 195.046875 C 61.566406 194.984375 61.566406 194.886719 61.507812 194.828125 Z M 60.746094 195.390625 C 60.230469 194.894531 59.625 194.492188 58.953125 194.214844 C 58.28125 193.933594 57.546875 193.78125 56.777344 193.78125 C 56.003906 193.78125 55.269531 193.933594 54.597656 194.214844 C 53.925781 194.492188 53.320312 194.894531 52.808594 195.390625 L 52.367188 194.941406 C 52.941406 194.386719 53.613281 193.9375 54.359375 193.628906 C 55.101562 193.320312 55.921875 193.148438 56.777344 193.148438 C 57.636719 193.148438 58.453125 193.320312 59.199219 193.628906 C 59.941406 193.9375 60.617188 194.386719 61.1875 194.941406 Z M 58.527344 197.722656 C 58.296875 197.496094 58.023438 197.3125 57.71875 197.183594 C 57.425781 197.0625 57.109375 196.996094 56.773438 196.996094 C 56.4375 196.996094 56.121094 197.0625 55.828125 197.183594 C 55.523438 197.3125 55.25 197.496094 55.023438 197.722656 C 54.996094 197.75 54.96875 197.777344 54.941406 197.804688 C 54.886719 197.867188 54.890625 197.960938 54.945312 198.019531 L 55.605469 198.691406 C 55.664062 198.75 55.761719 198.75 55.824219 198.691406 L 55.867188 198.644531 L 55.902344 198.605469 C 56.019531 198.492188 56.152344 198.398438 56.304688 198.335938 C 56.449219 198.277344 56.605469 198.242188 56.777344 198.246094 C 56.945312 198.246094 57.105469 198.277344 57.25 198.335938 C 57.398438 198.398438 57.535156 198.492188 57.648438 198.605469 L 57.683594 198.644531 L 57.71875 198.679688 C 57.773438 198.746094 57.867188 198.753906 57.933594 198.699219 L 57.945312 198.691406 L 58.601562 198.019531 C 58.65625 197.957031 58.660156 197.867188 58.605469 197.804688 Z M 57.835938 198.359375 C 57.699219 198.234375 57.539062 198.128906 57.363281 198.054688 C 57.183594 197.976562 56.984375 197.9375 56.773438 197.9375 C 56.570312 197.9375 56.371094 197.976562 56.1875 198.054688 C 56.011719 198.125 55.851562 198.234375 55.714844 198.359375 L 55.273438 197.910156 C 55.464844 197.722656 55.691406 197.574219 55.945312 197.46875 C 56.199219 197.363281 56.480469 197.304688 56.773438 197.304688 C 57.070312 197.304688 57.351562 197.363281 57.605469 197.46875 C 57.859375 197.574219 58.085938 197.722656 58.277344 197.910156 Z M 57.835938 198.359375 " fill-opacity="1" fill-rule="nonzero"/></g><g transform="matrix(1, 0, 0, 1, 92, 196)"><g clip-path="url(#31bfda0acb)"><g fill="#2e17c2" fill-opacity="1"><g transform="translate(0.795737, 22.64515)"><g><path d="M 0.421875 -2.046875 L 0.90625 -2.046875 C 1.1875 -2.046875 1.390625 -2.109375 1.515625 -2.234375 C 1.648438 -2.359375 1.71875 -2.554688 1.71875 -2.828125 L 1.71875 -10.296875 C 1.71875 -10.796875 1.445312 -11.046875 0.90625 -11.046875 L 0.421875 -11.046875 L 0.421875 -13.078125 L 10.640625 -13.078125 L 10.640625 -9.96875 L 7.75 -9.96875 L 7.75 -10.265625 C 7.75 -10.785156 7.476562 -11.046875 6.9375 -11.046875 L 4.890625 -11.046875 L 4.890625 -7.5625 L 7.640625 -7.5625 L 7.640625 -5.515625 L 4.890625 -5.515625 L 4.890625 -2.046875 L 6.9375 -2.046875 C 7.476562 -2.046875 7.75 -2.304688 7.75 -2.828125 L 7.75 -3.140625 L 10.640625 -3.140625 L 10.640625 0 L 0.421875 0 Z M 0.421875 -2.046875 "/></g></g></g><g fill="#2e17c2" fill-opacity="1"><g transform="translate(16.428573, 22.64515)"><g><path d="M 0.421875 -2.046875 L 0.90625 -2.046875 C 1.1875 -2.046875 1.390625 -2.109375 1.515625 -2.234375 C 1.648438 -2.359375 1.71875 -2.554688 1.71875 -2.828125 L 1.71875 -10.296875 C 1.71875 -10.796875 1.445312 -11.046875 0.90625 -11.046875 L 0.421875 -11.046875 L 0.421875 -13.078125 L 6.734375 -13.078125 C 8.648438 -13.078125 10.078125 -12.507812 11.015625 -11.375 C 11.953125 -10.25 12.421875 -8.617188 12.421875 -6.484375 C 12.421875 -5.234375 12.207031 -4.117188 11.78125 -3.140625 C 11.351562 -2.160156 10.710938 -1.390625 9.859375 -0.828125 C 9.015625 -0.273438 7.972656 0 6.734375 0 L 0.421875 0 Z M 6.25 -2.046875 C 7.351562 -2.046875 8.132812 -2.410156 8.59375 -3.140625 C 9.050781 -3.878906 9.28125 -4.992188 9.28125 -6.484375 C 9.28125 -8.023438 9.050781 -9.171875 8.59375 -9.921875 C 8.144531 -10.671875 7.363281 -11.046875 6.25 -11.046875 L 4.859375 -11.046875 L 4.859375 -2.046875 Z M 6.25 -2.046875 "/></g></g></g><g fill="#2e17c2" fill-opacity="1"><g transform="translate(32.931025, 22.64515)"><g><path d="M 3.3125 -2.046875 L 3.78125 -2.046875 C 4.320312 -2.046875 4.59375 -2.296875 4.59375 -2.796875 L 4.59375 -11.015625 L 3.25 -11.015625 C 2.96875 -11.015625 2.765625 -10.953125 2.640625 -10.828125 C 2.515625 -10.710938 2.453125 -10.519531 2.453125 -10.25 L 2.453125 -9.421875 L 0.21875 -9.421875 L 0.21875 -13.0625 L 12.109375 -13.0625 L 12.109375 -9.421875 L 9.90625 -9.421875 L 9.90625 -10.25 C 9.90625 -10.519531 9.835938 -10.710938 9.703125 -10.828125 C 9.578125 -10.953125 9.375 -11.015625 9.09375 -11.015625 L 7.765625 -11.015625 L 7.765625 -2.796875 C 7.765625 -2.296875 8.039062 -2.046875 8.59375 -2.046875 L 9.0625 -2.046875 L 9.0625 0 L 3.3125 0 Z M 3.3125 -2.046875 "/></g></g></g><g fill="#2e17c2" fill-opacity="1"><g transform="translate(49.858171, 22.64515)"><g><path d="M 0.421875 -2.046875 L 0.90625 -2.046875 C 1.1875 -2.046875 1.390625 -2.109375 1.515625 -2.234375 C 1.648438 -2.359375 1.71875 -2.554688 1.71875 -2.828125 L 1.71875 -10.296875 C 1.71875 -10.796875 1.445312 -11.046875 0.90625 -11.046875 L 0.421875 -11.046875 L 0.421875 -13.078125 L 10.640625 -13.078125 L 10.640625 -9.96875 L 7.75 -9.96875 L 7.75 -10.265625 C 7.75 -10.785156 7.476562 -11.046875 6.9375 -11.046875 L 4.890625 -11.046875 L 4.890625 -7.5625 L 7.640625 -7.5625 L 7.640625 -5.515625 L 4.890625 -5.515625 L 4.890625 -2.046875 L 6.9375 -2.046875 C 7.476562 -2.046875 7.75 -2.304688 7.75 -2.828125 L 7.75 -3.140625 L 10.640625 -3.140625 L 10.640625 0 L 0.421875 0 Z M 0.421875 -2.046875 "/></g></g></g><g fill="#2e17c2" fill-opacity="1"><g transform="translate(64.884297, 22.64515)"><g><path d="M 7.40625 0.296875 C 5.894531 0.296875 4.613281 0.015625 3.5625 -0.546875 C 2.519531 -1.109375 1.734375 -1.898438 1.203125 -2.921875 C 0.679688 -3.941406 0.421875 -5.117188 0.421875 -6.453125 C 0.421875 -7.804688 0.660156 -9.003906 1.140625 -10.046875 C 1.617188 -11.085938 2.351562 -11.90625 3.34375 -12.5 C 4.332031 -13.09375 5.570312 -13.390625 7.0625 -13.390625 C 8.09375 -13.390625 8.972656 -13.289062 9.703125 -13.09375 C 10.441406 -12.894531 11.128906 -12.582031 11.765625 -12.15625 L 11.765625 -9.609375 L 8.59375 -9.609375 L 8.59375 -11.09375 C 8.195312 -11.25 7.703125 -11.328125 7.109375 -11.328125 C 5.953125 -11.328125 5.070312 -10.894531 4.46875 -10.03125 C 3.863281 -9.175781 3.5625 -7.984375 3.5625 -6.453125 C 3.5625 -4.941406 3.894531 -3.78125 4.5625 -2.96875 C 5.238281 -2.164062 6.238281 -1.765625 7.5625 -1.765625 C 8.175781 -1.765625 8.738281 -1.832031 9.25 -1.96875 C 9.757812 -2.113281 10.269531 -2.347656 10.78125 -2.671875 L 11.875 -0.9375 C 11.1875 -0.457031 10.515625 -0.132812 9.859375 0.03125 C 9.210938 0.207031 8.394531 0.296875 7.40625 0.296875 Z M 7.40625 0.296875 "/></g></g></g><g fill="#2e17c2" fill-opacity="1"><g transform="translate(81.75078, 22.64515)"><g><path d="M 0.421875 -2.046875 L 0.90625 -2.046875 C 1.1875 -2.046875 1.390625 -2.109375 1.515625 -2.234375 C 1.640625 -2.359375 1.703125 -2.554688 1.703125 -2.828125 L 1.703125 -10.296875 C 1.703125 -10.796875 1.4375 -11.046875 0.90625 -11.046875 L 0.421875 -11.046875 L 0.421875 -13.078125 L 5.984375 -13.078125 L 5.984375 -11.046875 L 5.65625 -11.046875 C 5.144531 -11.046875 4.890625 -10.796875 4.890625 -10.296875 L 4.890625 -7.578125 L 9.015625 -7.578125 L 9.015625 -10.25 C 9.015625 -10.519531 8.953125 -10.71875 8.828125 -10.84375 C 8.703125 -10.976562 8.503906 -11.046875 8.234375 -11.046875 L 7.90625 -11.046875 L 7.90625 -13.078125 L 13.484375 -13.078125 L 13.484375 -11.046875 L 13 -11.046875 C 12.457031 -11.046875 12.1875 -10.796875 12.1875 -10.296875 L 12.1875 -2.828125 C 12.1875 -2.554688 12.25 -2.359375 12.375 -2.234375 C 12.507812 -2.109375 12.71875 -2.046875 13 -2.046875 L 13.484375 -2.046875 L 13.484375 0 L 7.90625 0 L 7.90625 -2.046875 L 8.234375 -2.046875 C 8.503906 -2.046875 8.703125 -2.109375 8.828125 -2.234375 C 8.953125 -2.359375 9.015625 -2.554688 9.015625 -2.828125 L 9.015625 -5.546875 L 4.890625 -5.546875 L 4.890625 -2.828125 C 4.890625 -2.554688 4.953125 -2.359375 5.078125 -2.234375 C 5.210938 -2.109375 5.414062 -2.046875 5.6875 -2.046875 L 5.984375 -2.046875 L 5.984375 0 L 0.421875 0 Z M 0.421875 -2.046875 "/></g></g></g><g fill="#2e17c2" fill-opacity="1"><g transform="translate(100.235139, 22.64515)"><g/></g></g><g fill="#2e17c2" fill-opacity="1"><g transform="translate(110.872755, 22.64515)"><g><path d="M 5.6875 0.296875 C 4.601562 0.296875 3.613281 0.15625 2.71875 -0.125 C 1.832031 -0.414062 1.066406 -0.828125 0.421875 -1.359375 L 0.421875 -3.703125 L 3.640625 -3.703125 L 3.640625 -2.21875 C 4.191406 -1.914062 4.878906 -1.765625 5.703125 -1.765625 C 6.910156 -1.765625 7.515625 -2.257812 7.515625 -3.25 C 7.515625 -3.59375 7.414062 -3.878906 7.21875 -4.109375 C 7.019531 -4.347656 6.75 -4.550781 6.40625 -4.71875 C 6.070312 -4.882812 5.535156 -5.128906 4.796875 -5.453125 C 3.796875 -5.867188 2.992188 -6.265625 2.390625 -6.640625 C 1.796875 -7.023438 1.335938 -7.460938 1.015625 -7.953125 C 0.691406 -8.441406 0.53125 -9.039062 0.53125 -9.75 C 0.53125 -10.945312 1.007812 -11.851562 1.96875 -12.46875 C 2.9375 -13.082031 4.164062 -13.390625 5.65625 -13.390625 C 6.707031 -13.390625 7.617188 -13.234375 8.390625 -12.921875 C 9.160156 -12.617188 9.84375 -12.210938 10.4375 -11.703125 L 10.4375 -9.578125 L 7.21875 -9.578125 L 7.21875 -10.921875 C 6.757812 -11.191406 6.1875 -11.328125 5.5 -11.328125 C 4.289062 -11.328125 3.6875 -10.835938 3.6875 -9.859375 C 3.6875 -9.484375 3.804688 -9.160156 4.046875 -8.890625 C 4.296875 -8.617188 4.585938 -8.398438 4.921875 -8.234375 C 5.265625 -8.078125 5.734375 -7.878906 6.328125 -7.640625 C 7.472656 -7.171875 8.320312 -6.78125 8.875 -6.46875 C 9.4375 -6.15625 9.875 -5.757812 10.1875 -5.28125 C 10.5 -4.800781 10.65625 -4.179688 10.65625 -3.421875 C 10.65625 -2.703125 10.460938 -2.0625 10.078125 -1.5 C 9.691406 -0.945312 9.125 -0.507812 8.375 -0.1875 C 7.632812 0.132812 6.738281 0.296875 5.6875 0.296875 Z M 5.6875 0.296875 "/></g></g></g><g fill="#2e17c2" fill-opacity="1"><g transform="translate(126.040446, 22.64515)"><g><path d="M 6.734375 0.296875 C 4.597656 0.296875 3.007812 -0.265625 1.96875 -1.390625 C 0.9375 -2.515625 0.421875 -4.210938 0.421875 -6.484375 C 0.421875 -8.796875 0.925781 -10.523438 1.9375 -11.671875 C 2.945312 -12.816406 4.546875 -13.390625 6.734375 -13.390625 C 8.921875 -13.390625 10.519531 -12.816406 11.53125 -11.671875 C 12.539062 -10.523438 13.046875 -8.796875 13.046875 -6.484375 C 13.046875 -4.210938 12.523438 -2.515625 11.484375 -1.390625 C 10.441406 -0.265625 8.859375 0.296875 6.734375 0.296875 Z M 6.734375 -1.765625 C 7.484375 -1.765625 8.09375 -1.914062 8.5625 -2.21875 C 9.03125 -2.53125 9.367188 -3.03125 9.578125 -3.71875 C 9.796875 -4.40625 9.90625 -5.328125 9.90625 -6.484375 C 9.90625 -7.671875 9.796875 -8.613281 9.578125 -9.3125 C 9.367188 -10.019531 9.03125 -10.53125 8.5625 -10.84375 C 8.09375 -11.164062 7.484375 -11.328125 6.734375 -11.328125 C 5.972656 -11.328125 5.363281 -11.164062 4.90625 -10.84375 C 4.445312 -10.53125 4.109375 -10.019531 3.890625 -9.3125 C 3.679688 -8.613281 3.578125 -7.671875 3.578125 -6.484375 C 3.578125 -5.328125 3.679688 -4.40625 3.890625 -3.71875 C 4.109375 -3.03125 4.445312 -2.53125 4.90625 -2.21875 C 5.363281 -1.914062 5.972656 -1.765625 6.734375 -1.765625 Z M 6.734375 -1.765625 "/></g></g></g><g fill="#2e17c2" fill-opacity="1"><g transform="translate(143.574289, 22.64515)"><g><path d="M 0.421875 -2.046875 L 0.890625 -2.046875 C 1.179688 -2.046875 1.390625 -2.109375 1.515625 -2.234375 C 1.648438 -2.359375 1.71875 -2.554688 1.71875 -2.828125 L 1.71875 -10.296875 C 1.71875 -10.796875 1.445312 -11.046875 0.90625 -11.046875 L 0.421875 -11.046875 L 0.421875 -13.078125 L 6.171875 -13.078125 L 6.171875 -11.046875 L 5.703125 -11.046875 C 5.160156 -11.046875 4.890625 -10.796875 4.890625 -10.296875 L 4.890625 -2.046875 L 6.9375 -2.046875 C 7.476562 -2.046875 7.75 -2.304688 7.75 -2.828125 L 7.75 -3.625 L 10.640625 -3.625 L 10.640625 0 L 0.421875 0 Z M 0.421875 -2.046875 "/></g></g></g><g fill="#2e17c2" fill-opacity="1"><g transform="translate(157.892592, 22.64515)"><g><path d="M 6.8125 0.296875 C 5.03125 0.296875 3.691406 -0.0625 2.796875 -0.78125 C 1.910156 -1.507812 1.46875 -2.507812 1.46875 -3.78125 L 1.46875 -10.296875 C 1.46875 -10.546875 1.40625 -10.734375 1.28125 -10.859375 C 1.15625 -10.984375 0.953125 -11.046875 0.671875 -11.046875 L 0.25 -11.046875 L 0.25 -13.078125 L 5.734375 -13.078125 L 5.734375 -11.046875 L 5.421875 -11.046875 C 5.140625 -11.046875 4.929688 -10.976562 4.796875 -10.84375 C 4.671875 -10.71875 4.609375 -10.523438 4.609375 -10.265625 L 4.609375 -3.65625 C 4.609375 -3 4.789062 -2.519531 5.15625 -2.21875 C 5.53125 -1.914062 6.082031 -1.765625 6.8125 -1.765625 C 7.539062 -1.765625 8.085938 -1.914062 8.453125 -2.21875 C 8.828125 -2.519531 9.015625 -3 9.015625 -3.65625 L 9.015625 -10.265625 C 9.015625 -10.523438 8.953125 -10.71875 8.828125 -10.84375 C 8.710938 -10.976562 8.515625 -11.046875 8.234375 -11.046875 L 7.890625 -11.046875 L 7.890625 -13.078125 L 13.390625 -13.078125 L 13.390625 -11.046875 L 12.953125 -11.046875 C 12.429688 -11.046875 12.171875 -10.796875 12.171875 -10.296875 L 12.171875 -3.78125 C 12.171875 -2.507812 11.722656 -1.507812 10.828125 -0.78125 C 9.929688 -0.0625 8.59375 0.296875 6.8125 0.296875 Z M 6.8125 0.296875 "/></g></g></g><g fill="#2e17c2" fill-opacity="1"><g transform="translate(176.093821, 22.64515)"><g><path d="M 3.3125 -2.046875 L 3.78125 -2.046875 C 4.320312 -2.046875 4.59375 -2.296875 4.59375 -2.796875 L 4.59375 -11.015625 L 3.25 -11.015625 C 2.96875 -11.015625 2.765625 -10.953125 2.640625 -10.828125 C 2.515625 -10.710938 2.453125 -10.519531 2.453125 -10.25 L 2.453125 -9.421875 L 0.21875 -9.421875 L 0.21875 -13.0625 L 12.109375 -13.0625 L 12.109375 -9.421875 L 9.90625 -9.421875 L 9.90625 -10.25 C 9.90625 -10.519531 9.835938 -10.710938 9.703125 -10.828125 C 9.578125 -10.953125 9.375 -11.015625 9.09375 -11.015625 L 7.765625 -11.015625 L 7.765625 -2.796875 C 7.765625 -2.296875 8.039062 -2.046875 8.59375 -2.046875 L 9.0625 -2.046875 L 9.0625 0 L 3.3125 0 Z M 3.3125 -2.046875 "/></g></g></g><g fill="#2e17c2" fill-opacity="1"><g transform="translate(193.020967, 22.64515)"><g><path d="M 0.421875 -2.046875 L 0.890625 -2.046875 C 1.179688 -2.046875 1.390625 -2.109375 1.515625 -2.234375 C 1.640625 -2.359375 1.703125 -2.554688 1.703125 -2.828125 L 1.703125 -10.296875 C 1.703125 -10.546875 1.632812 -10.734375 1.5 -10.859375 C 1.375 -10.984375 1.171875 -11.046875 0.890625 -11.046875 L 0.421875 -11.046875 L 0.421875 -13.078125 L 6.140625 -13.078125 L 6.140625 -11.046875 L 5.65625 -11.046875 C 5.132812 -11.046875 4.875 -10.796875 4.875 -10.296875 L 4.875 -2.796875 C 4.875 -2.296875 5.132812 -2.046875 5.65625 -2.046875 L 6.140625 -2.046875 L 6.140625 0 L 0.421875 0 Z M 0.421875 -2.046875 "/></g></g></g><g fill="#2e17c2" fill-opacity="1"><g transform="translate(203.456342, 22.64515)"><g><path d="M 6.734375 0.296875 C 4.597656 0.296875 3.007812 -0.265625 1.96875 -1.390625 C 0.9375 -2.515625 0.421875 -4.210938 0.421875 -6.484375 C 0.421875 -8.796875 0.925781 -10.523438 1.9375 -11.671875 C 2.945312 -12.816406 4.546875 -13.390625 6.734375 -13.390625 C 8.921875 -13.390625 10.519531 -12.816406 11.53125 -11.671875 C 12.539062 -10.523438 13.046875 -8.796875 13.046875 -6.484375 C 13.046875 -4.210938 12.523438 -2.515625 11.484375 -1.390625 C 10.441406 -0.265625 8.859375 0.296875 6.734375 0.296875 Z M 6.734375 -1.765625 C 7.484375 -1.765625 8.09375 -1.914062 8.5625 -2.21875 C 9.03125 -2.53125 9.367188 -3.03125 9.578125 -3.71875 C 9.796875 -4.40625 9.90625 -5.328125 9.90625 -6.484375 C 9.90625 -7.671875 9.796875 -8.613281 9.578125 -9.3125 C 9.367188 -10.019531 9.03125 -10.53125 8.5625 -10.84375 C 8.09375 -11.164062 7.484375 -11.328125 6.734375 -11.328125 C 5.972656 -11.328125 5.363281 -11.164062 4.90625 -10.84375 C 4.445312 -10.53125 4.109375 -10.019531 3.890625 -9.3125 C 3.679688 -8.613281 3.578125 -7.671875 3.578125 -6.484375 C 3.578125 -5.328125 3.679688 -4.40625 3.890625 -3.71875 C 4.109375 -3.03125 4.445312 -2.53125 4.90625 -2.21875 C 5.363281 -1.914062 5.972656 -1.765625 6.734375 -1.765625 Z M 6.734375 -1.765625 "/></g></g></g><g fill="#2e17c2" fill-opacity="1"><g transform="translate(220.787944, 22.64515)"><g><path d="M 0.421875 -2.046875 L 0.90625 -2.046875 C 1.4375 -2.046875 1.703125 -2.296875 1.703125 -2.796875 L 1.703125 -10.296875 C 1.703125 -10.796875 1.4375 -11.046875 0.90625 -11.046875 L 0.421875 -11.046875 L 0.421875 -13.078125 L 4.0625 -13.078125 L 9.203125 -5.09375 L 9.203125 -10.296875 C 9.203125 -10.796875 8.929688 -11.046875 8.390625 -11.046875 L 7.90625 -11.046875 L 7.90625 -13.078125 L 13.625 -13.078125 L 13.625 -11.046875 L 13.140625 -11.046875 C 12.617188 -11.046875 12.359375 -10.796875 12.359375 -10.296875 L 12.359375 0 L 9.984375 0 L 4.875 -7.921875 L 4.875 -2.796875 C 4.875 -2.296875 5.132812 -2.046875 5.65625 -2.046875 L 6.140625 -2.046875 L 6.140625 0 L 0.421875 0 Z M 0.421875 -2.046875 "/></g></g></g><g fill="#2e17c2" fill-opacity="1"><g transform="translate(238.908297, 22.64515)"><g><path d="M 5.6875 0.296875 C 4.601562 0.296875 3.613281 0.15625 2.71875 -0.125 C 1.832031 -0.414062 1.066406 -0.828125 0.421875 -1.359375 L 0.421875 -3.703125 L 3.640625 -3.703125 L 3.640625 -2.21875 C 4.191406 -1.914062 4.878906 -1.765625 5.703125 -1.765625 C 6.910156 -1.765625 7.515625 -2.257812 7.515625 -3.25 C 7.515625 -3.59375 7.414062 -3.878906 7.21875 -4.109375 C 7.019531 -4.347656 6.75 -4.550781 6.40625 -4.71875 C 6.070312 -4.882812 5.535156 -5.128906 4.796875 -5.453125 C 3.796875 -5.867188 2.992188 -6.265625 2.390625 -6.640625 C 1.796875 -7.023438 1.335938 -7.460938 1.015625 -7.953125 C 0.691406 -8.441406 0.53125 -9.039062 0.53125 -9.75 C 0.53125 -10.945312 1.007812 -11.851562 1.96875 -12.46875 C 2.9375 -13.082031 4.164062 -13.390625 5.65625 -13.390625 C 6.707031 -13.390625 7.617188 -13.234375 8.390625 -12.921875 C 9.160156 -12.617188 9.84375 -12.210938 10.4375 -11.703125 L 10.4375 -9.578125 L 7.21875 -9.578125 L 7.21875 -10.921875 C 6.757812 -11.191406 6.1875 -11.328125 5.5 -11.328125 C 4.289062 -11.328125 3.6875 -10.835938 3.6875 -9.859375 C 3.6875 -9.484375 3.804688 -9.160156 4.046875 -8.890625 C 4.296875 -8.617188 4.585938 -8.398438 4.921875 -8.234375 C 5.265625 -8.078125 5.734375 -7.878906 6.328125 -7.640625 C 7.472656 -7.171875 8.320312 -6.78125 8.875 -6.46875 C 9.4375 -6.15625 9.875 -5.757812 10.1875 -5.28125 C 10.5 -4.800781 10.65625 -4.179688 10.65625 -3.421875 C 10.65625 -2.703125 10.460938 -2.0625 10.078125 -1.5 C 9.691406 -0.945312 9.125 -0.507812 8.375 -0.1875 C 7.632812 0.132812 6.738281 0.296875 5.6875 0.296875 Z M 5.6875 0.296875 "/></g></g></g></g></g></svg>